<svg id="Capa_1" enable-background="new 0 0 512 512" height="512" viewBox="0 0 512 512" width="512" xmlns="http://www.w3.org/2000/svg"><g><g><path d="m24.081 393.18c-.456 4.53-.709 9.512-.709 15 0 60 30 60 30 60l436.128-15v-60l-226.541-20z" fill="#edf6ff"/><path d="m489.5 363.18-436.128-15s-24.76.005-29.291 45h465.419z" fill="#cde2ff"/><path d="m53.372 453.18c-10.819 0-15.872-13.299-15.872-45 0-9.318.44-17.034 1.331-23.302.003-.031.004-.06.008-.091 2.49-22.415 8.714-26.607 19.533-26.607 9.636 0 367.871-10 446.128-10v-15s-424.758 0-451.128 0c-8.117 0-15.58 2.11-22.027 6.558-9.968 13.656-18.845 37.178-18.845 63.442 0 49.2 20.627 75 40.872 75 23.452 0 373.878-10 451.128-10v-15s-440.309 0-451.128 0z" fill="#e29576"/><path d="m53.372 468.18h451.128v15s-424.758 0-451.128 0-45.872-22.166-45.872-75c0-36.57 9.348-58.438 23.845-68.442-6.049 15.334-8.845 37.178-8.845 63.442 0 49.2 10.627 65 30.872 65z" fill="#e27c48"/><path d="m38.839 384.787c-.003.031-.004.06-.008.091 2.141-15.056 6.902-21.698 14.541-21.698h451.128v-15c-78.257 0-436.492 0-446.128 0-10.819 0-16.06 4.185-19.533 36.607z" fill="#e27c48"/><path d="m219.293 323.601h88.332c23.012 0 44.438-15.285 64.354-43.167 12.831-23.14 20.539-50.097 20.539-72.8 0-51.878-31.377-93.933-85.693-93.933-17.793 0-48.867 7.924-48.867 7.924s-31.073-7.924-48.867-7.924c-20.488 0-37.71 5.986-51.218 16.224-17.756 18.83-24.475 43.607-24.475 67.709.002 65.655 41.49 125.967 85.895 125.967z" fill="#ffd064"/><path d="m307.625 318.601c-16.264 0-67.069 0-83.332 0-44.405 0-85.893-60.311-85.893-125.968 0-24.102 6.776-46.08 19.475-62.709-22.302 16.903-34.475 45.4-34.475 77.709 0 51.878 40.247 125.968 89.893 125.968h89.332c27.92 0 52.867-23.432 69.354-53.167-18.206 22.245-41.342 38.167-64.354 38.167z" fill="#ebb044"/><path d="m257.959 121.624c39.452-11.843 61.794-53.351 49.951-92.803-39.453 11.843-61.794 53.351-49.951 92.803z" fill="#61aab8"/></g><g><path d="m504.5 490.68h-451.128c-16.047 0-53.372-8.039-53.372-82.5 0-26.681 4.82-47.372 14.325-61.5 9.244-13.739 22.746-21 39.047-21h93.602c4.142 0 7.5 3.358 7.5 7.5s-3.358 7.5-7.5 7.5h-93.602c-33.387 0-38.372 42.291-38.372 67.5s4.985 67.5 38.372 67.5h443.628v-15h-443.628c-6.141 0-14.431-2.703-19.052-15.579-2.947-8.211-4.32-19.943-4.32-36.921s1.373-28.71 4.32-36.921c4.622-12.876 12.912-15.579 19.052-15.579h443.628v-15h-283.707c-25.359 0-50.163-16.591-69.843-46.718-16.994-26.013-27.55-59.093-27.55-86.329 0-27.79 8.628-53.116 24.294-71.314 16.963-19.704 40.788-30.119 68.899-30.119 11.583 0 28.005 3.06 39.002 5.434-2.467-17.229.606-34.724 9-50.319 10.379-19.282 27.659-33.373 48.659-39.677 3.968-1.188 8.148 1.06 9.34 5.027 6.304 21 4.06 43.184-6.318 62.466-3.521 6.542-7.836 12.486-12.822 17.731 3.86-.413 7.563-.662 10.874-.662 14.775 0 28.453 2.903 40.655 8.627 3.75 1.76 5.363 6.226 3.604 9.976-1.761 3.75-6.226 5.361-9.976 3.604-10.193-4.783-21.729-7.208-34.284-7.208-16.538 0-46.272 7.503-47.003 7.688-1.297.333-2.608.305-3.82-.023-1.963-.494-30.766-7.666-46.911-7.666-38.921 0-78.193 26.726-78.193 86.433 0 24.482 9.621 54.418 25.108 78.125 16.574 25.371 37.454 39.921 57.286 39.921h89.332c19.832 0 40.712-14.551 57.285-39.921 15.487-23.708 25.108-53.644 25.108-78.125 0-25.564-8.087-48.249-22.771-63.873-2.837-3.018-2.689-7.765.328-10.602 3.02-2.836 7.767-2.689 10.602.329 17.31 18.417 26.842 44.749 26.842 74.146 0 27.236-10.557 60.316-27.551 86.329-8.686 13.296-18.371 23.957-28.66 31.718h160.691c4.143 0 7.5 3.358 7.5 7.5v30c0 4.142-3.357 7.5-7.5 7.5h-7.5v75h7.5c4.143 0 7.5 3.358 7.5 7.5v30c0 4.144-3.357 7.502-7.5 7.502zm-451.128-120c-.944 0-2.908 0-4.934 5.646-2.281 6.356-3.438 17.073-3.438 31.854s1.157 25.498 3.438 31.854c2.026 5.646 3.99 5.646 4.934 5.646h428.628v-15h-241.368c-4.142 0-7.5-3.358-7.5-7.5s3.358-7.5 7.5-7.5h241.368v-15h-413.628c-4.142 0-7.5-3.358-7.5-7.5s3.358-7.5 7.5-7.5h413.628v-15zm249.199-331.942c-13.769 5.96-25.059 16.29-32.269 29.686s-9.614 28.508-7.006 43.283c13.77-5.96 25.06-16.29 32.269-29.685 7.211-13.396 9.615-28.509 7.006-43.284zm-91.939 391.942h-142.26c-4.142 0-7.5-3.358-7.5-7.5s3.358-7.5 7.5-7.5h142.26c4.142 0 7.5 3.358 7.5 7.5s-3.358 7.5-7.5 7.5z"/></g></g></svg>