<svg height="512pt" viewBox="-16 0 511 512" width="512pt" xmlns="http://www.w3.org/2000/svg"><path d="m322.796875 20.097656c0-6.742187-5.550781-12.261718-12.332031-12.261718h-140.582032c-6.78125 0-12.332031 5.519531-12.332031 12.261718v25.742188h165.246094zm0 0" fill="#ffc843"/><path d="m56.429688 104.6875h367.488281v350.847656h-367.488281zm0 0" fill="#fff"/><g fill="#76ffd9"><path d="m446.808594 160.019531h-22.890625v103.039063h22.890625c6.78125 0 12.332031-5.515625 12.332031-12.257813v-78.519531c0-6.746094-5.550781-12.261719-12.332031-12.261719zm0 0"/><path d="m56.429688 160.019531h-22.890626c-6.78125 0-12.332031 5.515625-12.332031 12.261719v78.519531c0 6.742188 5.550781 12.257813 12.332031 12.257813h22.890626zm0 0"/><path d="m56.429688 491.902344c0 6.742187 5.550781 12.261718 12.332031 12.261718h342.824219c6.785156 0 12.332031-5.519531 12.332031-12.261718v-36.367188h-367.488281zm0 0"/><path d="m459.679688 45.839844h-439.011719c-6.78125 0-12.332031 5.519531-12.332031 12.261718v34.328126c0 6.742187 5.550781 12.257812 12.332031 12.257812h439.011719c6.78125 0 12.332031-5.515625 12.332031-12.257812v-34.328126c0-6.742187-5.550781-12.261718-12.332031-12.261718zm0 0"/><path d="m131.65625 404.511719c6.78125 0 12.332031-5.515625 12.332031-12.261719v-219.972656c0-6.742188-5.550781-12.257813-12.332031-12.257813h-4.933594c-6.785156 0-12.332031 5.515625-12.332031 12.257813v219.972656c0 6.746094 5.546875 12.261719 12.332031 12.261719zm0 0"/><path d="m205.644531 404.511719c6.785157 0 12.332031-5.515625 12.332031-12.261719v-219.972656c0-6.742188-5.546874-12.257813-12.332031-12.257813h-4.933593c-6.78125 0-12.332032 5.515625-12.332032 12.257813v219.972656c0 6.746094 5.550782 12.261719 12.332032 12.261719zm0 0"/><path d="m279.636719 404.511719c6.78125 0 12.332031-5.515625 12.332031-12.261719v-219.972656c0-6.742188-5.550781-12.257813-12.332031-12.257813h-4.933594c-6.78125 0-12.332031 5.515625-12.332031 12.257813v219.972656c0 6.746094 5.550781 12.261719 12.332031 12.261719zm0 0"/><path d="m353.628906 404.511719c6.78125 0 12.332032-5.515625 12.332032-12.261719v-219.972656c0-6.742188-5.550782-12.257813-12.332032-12.257813h-4.933594c-6.785156 0-12.332031 5.515625-12.332031 12.257813v219.972656c0 6.746094 5.546875 12.261719 12.332031 12.261719zm0 0"/></g><path d="m459.679688 38.003906h-82.625c-4.328126 0-7.835938 3.511719-7.835938 7.835938 0 4.328125 3.507812 7.839844 7.835938 7.839844h82.625c2.4375 0 4.496093 2.023437 4.496093 4.421874v34.328126c0 2.398437-2.058593 4.421874-4.496093 4.421874h-439.011719c-2.4375 0-4.496094-2.023437-4.496094-4.421874v-34.328126c0-2.398437 2.058594-4.425781 4.496094-4.425781h326.085937c4.328125 0 7.835938-3.507812 7.835938-7.835937s-3.507813-7.835938-7.835938-7.835938h-16.121094v-17.90625c0-11.082031-9.046874-20.097656-20.167968-20.097656h-140.582032c-11.121093 0-20.167968 9.015625-20.167968 20.097656v17.90625h-129.046875c-11.121094 0-20.167969 9.015625-20.167969 20.097656v34.328126c0 11.078124 9.046875 20.09375 20.167969 20.09375h27.925781v39.660156h-15.054688c-11.121093 0-20.167968 9.015625-20.167968 20.097656v78.519531c0 11.078125 9.046875 20.09375 20.167968 20.09375h15.054688v221.007813c0 11.082031 9.046875 20.097656 20.167969 20.097656h342.824219c11.121093 0 20.167968-9.015625 20.167968-20.097656v-221.007813h15.054688c11.121094 0 20.167968-9.015625 20.167968-20.09375v-78.519531c0-11.082031-9.046874-20.097656-20.167968-20.097656h-15.054688v-39.660156h27.925782c11.121093 0 20.171874-9.015626 20.171874-20.09375v-34.328126c-.003906-11.082031-9.050781-20.097656-20.171874-20.097656zm-294.289063-17.90625c0-2.398437 2.058594-4.425781 4.492187-4.425781h140.582032c2.4375 0 4.496094 2.027344 4.496094 4.425781v17.90625h-149.570313zm-131.851563 235.125c-2.4375 0-4.496093-2.027344-4.496093-4.421875v-78.519531c0-2.398438 2.058593-4.425781 4.496093-4.425781h15.054688v87.367187zm413.269532-87.367187c2.4375 0 4.496094 2.027343 4.496094 4.425781v78.519531c0 2.394531-2.058594 4.421875-4.496094 4.421875h-15.054688v-87.367187zm-30.726563 324.046875c0 2.398437-2.058593 4.425781-4.496093 4.425781h-342.824219c-2.4375 0-4.496094-2.027344-4.496094-4.425781v-379.378906h351.816406zm0 0" fill="#434c54"/></svg>