<svg height="512pt" viewBox="0 -2 512.00001 512" width="512pt" xmlns="http://www.w3.org/2000/svg"><path d="m329.800781 274.414062c4.140625 4.097657 5.140625 10.371094 2.484375 15.539063l-60.84375 118.28125c-1.566406 3.046875-4.253906 5.382813-7.507812 6.527344l-238.046875 83.914062c-4.914063 1.734375-10.394531.511719-14.085938-3.144531-3.6875-3.652344-4.921875-9.082031-3.171875-13.953125l84.710938-235.792969c1.160156-3.222656 3.519531-5.882812 6.597656-7.4375l119.40625-60.269531c5.21875-2.628906 11.554688-1.632813 15.691406 2.460937zm0 0" fill="#fff"/><path d="m329.800781 274.414062s-28.304687-6.085937-30.960937-.917968l-81.5 155.683594c-1.566406 3.046874 46.59375-14.417969 46.59375-14.417969 3.253906-1.144531 5.941406-3.480469 7.511718-6.527344l60.839844-118.28125c2.65625-5.167969 1.65625-11.441406-2.484375-15.539063zm0 0" fill="#fff"/><path d="m114.847656 267.464844c1.15625-3.226563 3.515625-5.882813 6.59375-7.441406l119.410156-60.265626c5.214844-2.632812-5.816406-19.214843-5.816406-19.214843-4.136718-4.097657-10.472656-5.09375-15.6875-2.460938l-119.410156 60.265625c-3.078125 1.554688-5.4375 4.214844-6.59375 7.4375l-84.714844 235.796875c-1.75 4.867188-.511718 10.296875 3.171875 13.949219 3.691407 3.65625 9.171875 4.878906 14.085938 3.144531l6.746093-2.375zm0 0" fill="#e1eaf8"/><path d="m210.515625 151.078125c7.914063-7.839844 20.746094-7.839844 28.660156 0l120.371094 119.234375c7.914063 7.839844 7.914063 20.546875 0 28.386719-7.914063 7.839843-20.746094 7.839843-28.660156 0l-120.371094-119.234375c-7.914063-7.839844-7.914063-20.550782 0-28.386719zm0 0" fill="#76ffd9"/><path d="m239.175781 122.6875c7.914063-7.839844 20.746094-7.839844 28.660157 0l120.371093 119.238281c7.914063 7.835938 7.914063 20.546875 0 28.386719-7.910156 7.839844-20.746093 7.839844-28.660156 0l-120.371094-119.234375c-7.914062-7.839844-7.914062-20.550781 0-28.390625zm0 0" fill="#76ffd9"/><path d="m497.351562 127.652344c8.015626 7.9375 9.074219 20.449218 2.507813 29.597656l-69.601563 97.042969c-3.960937 5.523437-10.179687 9.035156-16.996093 9.597656-6.816407.570313-13.535157-1.867187-18.371094-6.65625l-142.515625-141.164063c-4.835938-4.789062-7.292969-11.445312-6.722656-18.199218.574218-6.75 4.117187-12.910156 9.695312-16.835938l97.964844-68.945312c9.242188-6.5 21.867188-5.453125 29.886719 2.488281zm0 0" fill="#ffc843"/><path d="m497.351562 127.652344-32.414062-21.824219c8.015625 7.941406 9.078125 20.449219 2.511719 29.597656l-69.605469 97.042969c-3.960938 5.523438-10.175781 9.035156-16.992188 9.597656-.402343.035156-.804687.058594-1.203124.070313l15.242187 15.09375c4.835937 4.792969 11.558594 7.230469 18.371094 6.660156 6.816406-.566406 13.035156-4.078125 16.996093-9.601563l69.601563-97.039062c6.566406-9.148438 5.507813-21.660156-2.507813-29.597656zm0 0" fill="#fff"/><g fill="#76ffd9"><path d="m247.527344 117.707031c1.820312-.550781 3.703125-.84375 5.59375-.878906-1.890625.035156-3.773438.324219-5.59375.878906zm0 0"/><path d="m245.730469 118.347656c.554687-.226562 1.113281-.425781 1.683593-.601562-.566406.175781-1.128906.375-1.683593.601562zm0 0"/><path d="m242.300781 120.152344c.378907-.246094.769531-.464844 1.160157-.683594-.390626.21875-.78125.4375-1.160157.683594zm0 0"/><path d="m243.984375 119.160156c.472656-.25.960937-.46875 1.449219-.679687-.488282.210937-.976563.429687-1.449219.679687zm0 0"/><path d="m240.695312 121.328125c.25-.203125.515626-.378906.773438-.566406-.257812.1875-.523438.363281-.773438.566406zm0 0"/></g><path d="m252.375 116.070312.765625.753907zm0 0" fill="#ffc843"/><path d="m245.433594 118.480469c.101562-.042969.195312-.09375.296875-.132813-.101563.039063-.195313.09375-.296875.132813zm0 0" fill="#ffb400"/><path d="m241.46875 120.761719c.277344-.207031.546875-.421875.832031-.609375-.285156.1875-.554687.402344-.832031.609375zm0 0" fill="#ffb400"/><path d="m243.460938 119.46875c.175781-.101562.34375-.214844.523437-.308594-.179687.09375-.347656.210938-.523437.308594zm0 0" fill="#ffb400"/><path d="m247.414062 117.746094c.039063-.011719.074219-.027344.113282-.039063-.039063.011719-.074219.027344-.113282.039063zm0 0" fill="#ffb400"/><path d="m239.175781 122.6875c.488281-.484375.996094-.9375 1.515625-1.359375-.519531.421875-1.027344.875-1.515625 1.359375zm0 0" fill="#ffb400"/><path d="m231.9375 172.238281c7.730469-7.65625 20.140625-7.8125 28.089844-.507812l-20.851563-20.652344c-7.914062-7.839844-20.746093-7.839844-28.660156 0-7.914063 7.835937-7.914063 20.546875 0 28.386719l21.417969 21.164062c-7.914063-7.839844-7.914063-20.550781.003906-28.390625zm0 0" fill="#5de0bf"/><path d="m260.59375 172.238281c-7.914062-7.839843-7.914062-20.546875 0-28.390625 3.851562-3.8125 8.867188-5.753906 13.914062-5.855468l-21.367187-21.167969c-.007813 0-.015625 0-.023437 0-1.886719.039062-3.769532.328125-5.589844.882812-.039063.011719-.074219.027344-.113282.039063-.570312.175781-1.128906.375-1.683593.601562-.101563.039063-.195313.089844-.296875.132813-.488282.210937-.976563.429687-1.449219.679687-.179687.09375-.347656.210938-.523437.308594-.390626.21875-.78125.4375-1.160157.683594-.285156.1875-.554687.402344-.832031.609375-.257812.1875-.523438.363281-.773438.566406-.523437.425781-1.03125.875-1.519531 1.359375-7.914062 7.839844-7.914062 20.550781 0 28.390625l20.851563 20.652344c.1875.171875.382812.328125.566406.507812zm0 0" fill="#5de0bf"/><path d="m267.023438 121.960938c-.042969-.972657-.03125-1.949219.050781-2.929688.570312-6.75 4.117187-12.90625 9.691406-16.832031l97.96875-68.945313c9-6.335937 21.207031-5.484375 29.242187 1.90625l-20.777343-20.582031c-8.019531-7.941406-20.644531-8.988281-29.886719-2.488281l-97.964844 68.945312c-5.578125 3.929688-9.121094 10.085938-9.695312 16.835938-.570313 6.753906 1.886718 13.410156 6.722656 18.199218l.765625.753907c4.964844-.085938 9.941406 1.628906 13.882813 5.136719zm0 0" fill="#ffb400"/><path d="m159.882812 311.949219c10.289063-10.191407 26.96875-10.191407 37.257813 0 10.289063 10.191406 10.289063 26.714843 0 36.90625-10.289063 10.191406-26.972656 10.191406-37.257813 0-10.289062-10.191407-10.289062-26.714844 0-36.90625zm0 0" fill="#fff"/><path d="m502.847656 122.082031-114.15625-113.070312c-5.863281-5.8125-13.660156-9.011719-21.949218-9.011719-6.464844 0-12.675782 1.964844-17.960938 5.679688l-97.964844 68.949218c-7.488281 5.273438-12.222656 13.503906-12.992187 22.578125-.441407 5.203125.453125 10.347657 2.515625 15-2.433594 1.28125-4.695313 2.925781-6.699219 4.914063-5.328125 5.273437-8.257813 12.292968-8.257813 19.761718 0 .164063.015626.328126.019532.492188-.195313-.003906-.382813-.015625-.578125-.015625-7.492188 0-14.539063 2.898437-19.839844 8.148437-5.328125 5.273438-8.261719 12.289063-8.261719 19.761719 0 4.855469 1.246094 9.515625 3.578125 13.636719l-103.917969 52.445312c-4.886718 2.472657-8.59375 6.660157-10.433593 11.785157l-84.714844 235.796875c-2.765625 7.695312-.789063 16.398437 5.03125 22.164062 4.03125 3.992188 9.382813 6.191406 15.070313 6.191406 2.4375 0 4.835937-.410156 7.136718-1.222656l238.046875-83.914062c5.160157-1.816406 9.375-5.488282 11.871094-10.335938l52.984375-103.007812c-.003906 0-.007812-.003906-.007812-.003906 4.171874 2.351562 8.902343 3.609374 13.828124 3.609374 7.492188 0 14.542969-2.894531 19.847657-8.148437 5.324219-5.273437 8.253906-12.289063 8.253906-19.757813 0-.167968-.007813-.335937-.011719-.5.191406.003907.378906.019532.570313.019532 7.492187 0 14.542969-2.894532 19.84375-8.148438 2.027343-2.007812 3.699219-4.269531 5-6.707031 3.914062 1.722656 8.179687 2.636719 12.589843 2.636719.863282 0 1.742188-.035156 2.597657-.105469 9.125-.757813 17.40625-5.4375 22.714843-12.84375l69.605469-97.039063c8.847657-12.332031 7.433594-29.042968-3.359375-39.738281zm-183.632812 176.105469-54.757813 106.460938c-.65625 1.273437-1.773437 2.242187-3.148437 2.722656l-231.925782 81.757812 131.113282-129.871094c5.351562 3.304688 11.535156 5.078126 17.992187 5.078126 9.117188 0 17.691407-3.519532 24.144531-9.914063 6.472657-6.410156 10.039063-14.941406 10.039063-24.019531s-3.566406-17.609375-10.039063-24.019532c-6.453124-6.394531-15.027343-9.914062-24.144531-9.914062-9.113281 0-17.691406 3.519531-24.140625 9.914062-6.476562 6.410157-10.039062 14.941407-10.039062 24.019532 0 6.390625 1.773437 12.503906 5.074218 17.800781l-131.230468 129.988281 82.546875-229.757812c.480469-1.339844 1.457031-2.4375 2.75-3.089844l107.59375-54.304688-6.0625-6.007812 120.371093 119.234375zm-159.234375 32.214844c0-4.863282 1.914062-9.441406 5.394531-12.886719 3.5-3.464844 8.15625-5.375 13.113281-5.375 4.960938 0 9.617188 1.910156 13.117188 5.375 3.476562 3.445313 5.394531 8.023437 5.394531 12.886719 0 4.863281-1.917969 9.4375-5.394531 12.886718-3.5 3.464844-8.15625 5.375-13.117188 5.375-4.957031 0-9.613281-1.910156-13.113281-5.375-3.480469-3.449218-5.394531-8.023437-5.394531-12.886718zm194.035156-37.269532c-2.351563 2.328126-5.484375 3.609376-8.816406 3.609376-3.335938 0-6.46875-1.28125-8.816407-3.609376l-120.375-119.238281c-2.332031-2.304687-3.613281-5.371093-3.613281-8.625 0-3.253906 1.285157-6.316406 3.617188-8.625 2.347656-2.328125 5.480469-3.609375 8.8125-3.609375s6.464843 1.28125 8.816406 3.609375l120.371094 119.230469c2.332031 2.3125 3.613281 5.375 3.613281 8.632812 0 3.253907-1.28125 6.316407-3.609375 8.625zm19.84375-24.777343c-3.335937 0-6.464844-1.285157-8.816406-3.613281l-120.371094-119.230469c-2.335937-2.308594-3.617187-5.375-3.617187-8.628907 0-3.253906 1.285156-6.320312 3.613281-8.628906 1.582031-1.566406 3.519531-2.644531 5.632812-3.191406l135.542969 134.261719c-.554688 2.023437-1.628906 3.890625-3.171875 5.417969-2.347656 2.328124-5.480469 3.613281-8.8125 3.613281zm119.613281-115.671875-69.605468 97.042968c-2.628907 3.664063-6.734376 5.980469-11.277344 6.359376-4.484375.367187-9.03125-1.277344-12.207032-4.417969l-142.511718-141.167969c-3.191406-3.160156-4.808594-7.523438-4.429688-11.96875.378906-4.449219 2.710938-8.492188 6.394532-11.085938l97.964843-68.945312c2.628907-1.847656 5.722657-2.824219 8.941407-2.824219 4.132812 0 8.011718 1.585938 10.921874 4.46875l114.152344 113.074219c5.292969 5.238281 5.988282 13.425781 1.65625 19.464844zm0 0" fill="#434c54"/></svg>