<svg height="512pt" viewBox="-50 0 512 512.00209" width="512pt" xmlns="http://www.w3.org/2000/svg"><path d="m21.289062 7.835938c-7.398437 0-13.449218 6.054687-13.449218 13.453124v469.425782c0 7.394531 6.050781 13.449218 13.449218 13.449218h368.546876c7.398437 0 13.449218-6.054687 13.449218-13.449218v-343.140625c0-7.398438-4.28125-17.730469-9.511718-22.960938l-107.261719-107.265625c-5.234375-5.230468-15.566407-9.511718-22.964844-9.511718zm0 0" fill="#fff"/><path d="m51.484375 490.710938v-469.421876c0-7.398437 6.054687-13.453124 13.453125-13.453124h-43.648438c-7.398437 0-13.449218 6.054687-13.449218 13.453124v469.425782c0 7.394531 6.050781 13.449218 13.449218 13.449218h43.648438c-7.398438 0-13.453125-6.054687-13.453125-13.453124zm0 0" fill="#e1eaf8"/><path d="m200.804688 263.761719c2.617187 2.613281 6.898437 2.613281 9.511718 0l15.421875-15.421875v-122.449219c0-3.699219-3.027343-6.726563-6.726562-6.726563h-26.898438c-3.699219 0-6.726562 3.027344-6.726562 6.726563v122.449219zm0 0" fill="#76ffd9"/><path d="m286.511719 17.347656c-5.234375-5.230468-9.511719-3.457031-9.511719 3.941406v99.382813c0 7.398437 6.050781 13.453125 13.449219 13.453125h99.382812c7.398438 0 9.171875-4.28125 3.941407-9.511719zm0 0" fill="#ffc843"/><path d="m210.316406 320.824219c-2.613281 2.617187-6.894531 2.617187-9.511718 0l-73.660157-73.660157c-2.617187-2.617187-2.617187-6.898437 0-9.511718l19.019531-19.019532c2.617188-2.617187 6.894532-2.617187 9.511719 0l45.128907 45.128907c2.617187 2.613281 6.894531 2.613281 9.511718 0l45.128906-45.128907c2.617188-2.617187 6.898438-2.617187 9.511719 0l19.023438 19.019532c2.617187 2.617187 2.617187 6.894531 0 9.511718zm0 0" fill="#5de0bf"/><path d="m138.34375 226.449219-11.199219 11.203125c-2.617187 2.617187-2.617187 6.894531 0 9.511718l73.660157 73.660157c2.617187 2.617187 6.894531 2.617187 9.511718 0l11.203125-11.199219zm0 0" fill="#00c395"/><path d="m277.488281 386.109375c0 3.699219-3.027343 6.726563-6.726562 6.726563h-130.402344c-3.695313 0-6.722656-3.027344-6.722656-6.726563v-26.898437c0-3.699219 3.023437-6.726563 6.722656-6.726563h130.402344c3.699219 0 6.726562 3.027344 6.726562 6.726563zm0 0" fill="#5de0bf"/><path d="m399.316406 119.070312-31.480468-31.480468c-3.0625-3.058594-8.023438-3.058594-11.082032 0-3.0625 3.0625-3.0625 8.023437 0 11.085937l27.609375 27.609375h-93.914062c-3.09375 0-5.613281-2.515625-5.613281-5.613281v-93.917969l53.113281 53.113282c3.058593 3.0625 8.023437 3.0625 11.082031 0 3.058594-3.058594 3.058594-8.023438 0-11.082032l-56.980469-56.980468c-6.730469-6.730469-18.984375-11.804688-28.503906-11.804688h-242.257813c-11.738281 0-21.289062 9.550781-21.289062 21.289062v469.425782c0 11.734375 9.550781 21.285156 21.289062 21.285156h71.421876c4.328124 0 7.839843-3.507812 7.839843-7.835938 0-4.328124-3.511719-7.835937-7.839843-7.835937h-71.421876c-3.09375 0-5.613281-2.519531-5.613281-5.613281v-469.425782c0-3.097656 2.519531-5.617187 5.613281-5.617187h242.257813c1.660156 0 3.605469.335937 5.613281.90625v104.09375c0 11.738281 9.550782 21.289063 21.289063 21.289063h104.09375c.570312 2.007812.90625 3.953124.90625 5.613281v343.140625c0 3.09375-2.519531 5.613281-5.613281 5.613281h-267.867188c-4.328125 0-7.835938 3.507813-7.835938 7.835937 0 4.328126 3.507813 7.839844 7.835938 7.839844h267.867188c11.734374 0 21.285156-9.550781 21.285156-21.289062v-343.140625c0-9.519531-5.074219-21.773438-11.804688-28.503907zm0 0" fill="#434c54"/></svg>