<?xml version="1.0" encoding="iso-8859-1"?>
<!-- Generator: Adobe Illustrator 19.0.0, SVG Export Plug-In . SVG Version: 6.00 Build 0)  -->
<svg version="1.1" id="Capa_1" xmlns="http://www.w3.org/2000/svg" xmlns:xlink="http://www.w3.org/1999/xlink" x="0px" y="0px"
	 viewBox="0 0 512 512" style="enable-background:new 0 0 512 512;" xml:space="preserve">
<path style="fill:#76FFD9;" d="M251.995,500.364C117.255,500.364,7.632,390.74,7.632,256S117.255,11.638,251.995,11.638
	s244.364,109.624,244.364,244.364S386.734,500.364,251.995,500.364z"/>
<path style="fill:#5DE0BF;" d="M366.031,418.909c-134.74,0-244.363-109.624-244.363-244.364c0-56.402,19.394-108.255,51.613-149.656
	C77.091,57.753,7.632,148.825,7.632,256c0,134.74,109.624,244.363,244.363,244.363c78.338,0,148.001-37.202,192.75-94.707
	C420.007,414.109,393.594,418.909,366.031,418.909z"/>
<path style="fill:#FFFFFF;" d="M476.898,92.859l7.272-7.299c6.344-6.375,16.668-6.395,23.037-0.044
	c6.375,6.352,6.395,16.661,0.044,23.037L227.11,389.747c-3.171,3.188-7.341,4.786-11.51,4.794
	c-4.169,0.008-8.343-1.575-11.527-4.751L94.254,280.383c-6.375-6.352-6.395-16.661-0.044-23.037
	c6.344-6.375,16.668-6.395,23.037-0.044l98.28,97.91L454.03,115.812"/>
<path style="fill:#434C54;" d="M481.822,172.429c-4.005,1.316-6.184,5.628-4.869,9.632c7.764,23.64,11.725,48.368,11.773,73.494
	c0.119,63.233-24.394,122.729-69.022,167.525s-104.031,69.533-167.265,69.651c-0.151,0-0.3,0-0.452,0
	c-130.327,0-236.479-105.903-236.725-236.286c-0.118-63.233,24.395-122.729,69.023-167.525S188.317,19.388,251.551,19.27
	c65.683-0.118,128.991,27.383,173.754,75.466c2.871,3.085,7.7,3.258,10.785,0.386c3.085-2.871,3.258-7.7,0.386-10.785
	c-23.402-25.138-51.12-44.917-82.386-58.789C321.87,11.254,287.529,4.007,252.012,4.007c-0.163,0-0.328,0-0.49,0
	C184.212,4.133,120.98,30.464,73.474,78.149C25.967,125.834-0.126,189.164,0,256.473c0.127,67.31,26.457,130.542,74.142,178.048
	c47.571,47.393,110.707,73.475,177.838,73.473c0.161,0,0.327,0,0.487,0c67.31-0.126,130.542-26.457,178.048-74.142
	c47.506-47.684,73.599-111.015,73.472-178.324c-0.05-26.738-4.267-53.058-12.535-78.231
	C490.138,173.293,485.824,171.116,481.822,172.429z"/>
<g>
</g>
<g>
</g>
<g>
</g>
<g>
</g>
<g>
</g>
<g>
</g>
<g>
</g>
<g>
</g>
<g>
</g>
<g>
</g>
<g>
</g>
<g>
</g>
<g>
</g>
<g>
</g>
<g>
</g>
</svg>
